%TF.GenerationSoftware,KiCad,Pcbnew,6.0.2-378541a8eb~116~ubuntu21.10.1*%
%TF.CreationDate,2022-03-01T19:57:36-08:00*%
%TF.ProjectId,cover_50x75,636f7665-725f-4353-9078-37352e6b6963,rev?*%
%TF.SameCoordinates,Original*%
%TF.FileFunction,Legend,Top*%
%TF.FilePolarity,Positive*%
%FSLAX46Y46*%
G04 Gerber Fmt 4.6, Leading zero omitted, Abs format (unit mm)*
G04 Created by KiCad (PCBNEW 6.0.2-378541a8eb~116~ubuntu21.10.1) date 2022-03-01 19:57:36*
%MOMM*%
%LPD*%
G01*
G04 APERTURE LIST*
%ADD10C,0.150000*%
%ADD11C,0.250000*%
%ADD12C,0.120000*%
G04 APERTURE END LIST*
D10*
X215750000Y-54002380D02*
X216321428Y-54002380D01*
X216035714Y-55002380D02*
X216035714Y-54002380D01*
X216797619Y-55002380D02*
X216702380Y-54954761D01*
X216654761Y-54907142D01*
X216607142Y-54811904D01*
X216607142Y-54526190D01*
X216654761Y-54430952D01*
X216702380Y-54383333D01*
X216797619Y-54335714D01*
X216940476Y-54335714D01*
X217035714Y-54383333D01*
X217083333Y-54430952D01*
X217130952Y-54526190D01*
X217130952Y-54811904D01*
X217083333Y-54907142D01*
X217035714Y-54954761D01*
X216940476Y-55002380D01*
X216797619Y-55002380D01*
X217559523Y-54335714D02*
X217559523Y-55335714D01*
X217559523Y-54383333D02*
X217654761Y-54335714D01*
X217845238Y-54335714D01*
X217940476Y-54383333D01*
X217988095Y-54430952D01*
X218035714Y-54526190D01*
X218035714Y-54811904D01*
X217988095Y-54907142D01*
X217940476Y-54954761D01*
X217845238Y-55002380D01*
X217654761Y-55002380D01*
X217559523Y-54954761D01*
X219226190Y-55002380D02*
X219226190Y-54002380D01*
X219607142Y-54002380D01*
X219702380Y-54050000D01*
X219750000Y-54097619D01*
X219797619Y-54192857D01*
X219797619Y-54335714D01*
X219750000Y-54430952D01*
X219702380Y-54478571D01*
X219607142Y-54526190D01*
X219226190Y-54526190D01*
X220369047Y-55002380D02*
X220273809Y-54954761D01*
X220226190Y-54859523D01*
X220226190Y-54002380D01*
X221178571Y-55002380D02*
X221178571Y-54478571D01*
X221130952Y-54383333D01*
X221035714Y-54335714D01*
X220845238Y-54335714D01*
X220750000Y-54383333D01*
X221178571Y-54954761D02*
X221083333Y-55002380D01*
X220845238Y-55002380D01*
X220750000Y-54954761D01*
X220702380Y-54859523D01*
X220702380Y-54764285D01*
X220750000Y-54669047D01*
X220845238Y-54621428D01*
X221083333Y-54621428D01*
X221178571Y-54573809D01*
X221511904Y-54335714D02*
X221892857Y-54335714D01*
X221654761Y-54002380D02*
X221654761Y-54859523D01*
X221702380Y-54954761D01*
X221797619Y-55002380D01*
X221892857Y-55002380D01*
X222607142Y-54954761D02*
X222511904Y-55002380D01*
X222321428Y-55002380D01*
X222226190Y-54954761D01*
X222178571Y-54859523D01*
X222178571Y-54478571D01*
X222226190Y-54383333D01*
X222321428Y-54335714D01*
X222511904Y-54335714D01*
X222607142Y-54383333D01*
X222654761Y-54478571D01*
X222654761Y-54573809D01*
X222178571Y-54669047D01*
D11*
%TO.C,J1*%
X213280000Y-49160000D02*
X213280000Y-45560000D01*
D12*
X213880000Y-51560000D02*
X212680000Y-51560000D01*
X212680000Y-51560000D02*
X212680000Y-49160000D01*
X212680000Y-49160000D02*
X213880000Y-49160000D01*
X213880000Y-49160000D02*
X213880000Y-51560000D01*
X213880000Y-51560000D02*
X213880000Y-51560000D01*
D11*
X213280000Y-51560000D02*
X213280000Y-53460000D01*
%TD*%
M02*
