%TF.GenerationSoftware,KiCad,Pcbnew,5.1.9-73d0e3b20d~88~ubuntu20.04.1*%
%TF.CreationDate,2021-04-15T11:19:29-07:00*%
%TF.ProjectId,frame_50x75,6672616d-655f-4353-9078-37352e6b6963,2*%
%TF.SameCoordinates,Original*%
%TF.FileFunction,Profile,NP*%
%FSLAX46Y46*%
G04 Gerber Fmt 4.6, Leading zero omitted, Abs format (unit mm)*
G04 Created by KiCad (PCBNEW 5.1.9-73d0e3b20d~88~ubuntu20.04.1) date 2021-04-15 11:19:29*
%MOMM*%
%LPD*%
G01*
G04 APERTURE LIST*
%TA.AperFunction,Profile*%
%ADD10C,0.200000*%
%TD*%
G04 APERTURE END LIST*
D10*
X225003551Y-109046444D02*
G75*
G02*
X224296445Y-109753552I-353553J-353554D01*
G01*
X143120000Y-55650000D02*
G75*
G03*
X143120000Y-55650000I-1220000J0D01*
G01*
X224649999Y-108692893D02*
X225003552Y-109046446D01*
X225003552Y-59253553D02*
X224649999Y-59607106D01*
X151649998Y-109399999D02*
X149857105Y-109399998D01*
X224296444Y-58546447D02*
G75*
G02*
X225003552Y-59253553I353554J-353553D01*
G01*
X149149999Y-108692893D02*
X149150000Y-59607106D01*
X149503552Y-58546446D02*
X149857105Y-58900000D01*
X136899999Y-50650000D02*
X236899999Y-50650000D01*
X222149998Y-109399999D02*
X222149998Y-116899998D01*
X236899999Y-125649999D02*
X136900000Y-125649998D01*
X149857105Y-109399998D02*
X149503552Y-109753552D01*
X149150000Y-59607106D02*
X148796446Y-59253553D01*
X236899999Y-50650000D02*
X236899999Y-125649999D01*
X233119999Y-55650000D02*
G75*
G03*
X233119999Y-55650000I-1220000J0D01*
G01*
X143120000Y-119649999D02*
G75*
G03*
X143120000Y-119649999I-1220000J0D01*
G01*
X148796446Y-109046446D02*
X149149999Y-108692893D01*
X233119999Y-119649999D02*
G75*
G03*
X233119999Y-119649999I-1220000J0D01*
G01*
X136900000Y-125649998D02*
X136899999Y-50650000D01*
X151649999Y-116899999D02*
X151649998Y-109399999D01*
X149503552Y-109753550D02*
G75*
G02*
X148796446Y-109046446I-353553J353552D01*
G01*
X222149999Y-116899998D02*
G75*
G02*
X221649998Y-117399999I-500001J0D01*
G01*
X223942892Y-58900000D02*
X224296445Y-58546446D01*
X224296445Y-109753552D02*
X223942892Y-109399998D01*
X221649998Y-117399999D02*
X152149998Y-117399998D01*
X224649999Y-59607106D02*
X224649999Y-108692893D01*
X149857105Y-58900000D02*
X223942892Y-58900000D01*
X223942892Y-109399998D02*
X222149998Y-109399999D01*
X152149998Y-117399998D02*
G75*
G02*
X151649999Y-116899999I0J499999D01*
G01*
X148796448Y-59253554D02*
G75*
G02*
X149503552Y-58546446I353552J353554D01*
G01*
M02*
